<?xml version="1.0" standalone="no"?><!DOCTYPE svg PUBLIC "-//W3C//DTD SVG 1.1//EN" "http://www.w3.org/Graphics/SVG/1.1/DTD/svg11.dtd"><svg t="1749205008990" class="icon" viewBox="0 0 1024 1024" version="1.1" xmlns="http://www.w3.org/2000/svg" p-id="19581" width="32" height="32" xmlns:xlink="http://www.w3.org/1999/xlink"><path d="M332.599 516.124c37.387 0 67.806-30.416 67.805-67.802 0-37.385-30.417-67.798-67.804-67.798-37.389 0-67.808 30.414-67.808 67.798C264.792 485.709 295.21 516.122 332.599 516.124zM332.599 421.455c14.816 0 26.874 12.053 26.874 26.866 0 14.817-12.056 26.87-26.874 26.87-14.818 0-26.873-12.052-26.873-26.869C305.727 433.508 317.782 421.455 332.599 421.455z" fill="#272636" p-id="19582"></path><path d="M521.938 516.123c37.387 0.001 67.803-30.415 67.803-67.801 0-37.385-30.416-67.799-67.805-67.799-37.38 0.001-67.794 30.415-67.794 67.798C454.142 485.708 484.555 516.122 521.938 516.123zM521.936 421.456c14.817 0 26.873 12.053 26.872 26.866 0.001 14.817-12.054 26.87-26.872 26.87-14.813 0-26.863-12.053-26.864-26.87C495.073 433.508 507.125 421.455 521.936 421.456z" fill="#272636" p-id="19583"></path><path d="M711.274 516.124c37.39-0.001 67.81-30.415 67.81-67.803 0-37.384-30.421-67.798-67.809-67.797-37.384 0-67.797 30.414-67.797 67.799C643.479 485.708 673.893 516.123 711.274 516.124zM711.275 421.456c14.82 0 26.877 12.052 26.877 26.866 0 14.818-12.057 26.87-26.877 26.871-14.814 0-26.864-12.054-26.863-26.87C684.411 433.507 696.461 421.456 711.275 421.456z" fill="#272636" p-id="19584"></path><path d="M777.48 957.916c0.084 0 0.164 0 0.248 0l54.576-0.103-41.188-35.809c-21.775-18.932-45.774-46.048-65.843-74.395-17.536-24.773-30.905-48.716-39.368-70.377 91.775-21.186 169.02-64.737 224.42-126.766 58.652-65.671 89.654-147.875 89.654-237.725-0.001-51.875-12.926-102.143-38.416-149.406-24.391-45.226-59.195-85.754-103.447-120.461C768.104 72.278 648.711 33.398 521.934 33.397c-126.771 0.001-246.161 38.88-336.173 109.478-44.252 34.705-79.057 75.236-103.447 120.461C56.824 310.6 43.9 360.866 43.9 412.743c0 99.65 41.126 192.511 115.801 261.473 37.28 34.429 81.702 61.967 132.033 81.853 49.283 19.471 103.178 31.146 160.346 34.747 29.584 36.894 83.024 76.861 148.606 110.905C668.492 936.921 734.556 957.914 777.48 957.916zM521.936 74.331c241.023 0 437.109 151.813 437.111 338.411 0 79.635-27.403 152.411-79.25 210.459-53.839 60.283-131.353 101.271-224.161 118.531l-21.56 4.012 5.487 21.23c12.748 49.334 46.784 100.783 79.793 139.699-30.08-8.874-64.808-23.108-99.814-41.28-63.866-33.154-116.296-72.931-140.255-106.403l-5.773-8.068-9.91-0.466c-56.228-2.638-108.994-13.559-156.827-32.457-45.614-18.021-85.753-42.868-119.305-73.851-66.188-61.125-102.639-143.306-102.64-231.404C84.832 226.143 280.917 74.33 521.936 74.331z" fill="#272636" p-id="19585"></path></svg>