<?xml version="1.0" standalone="no"?><!DOCTYPE svg PUBLIC "-//W3C//DTD SVG 1.1//EN" "http://www.w3.org/Graphics/SVG/1.1/DTD/svg11.dtd"><svg t="1748018690391" class="icon" viewBox="0 0 1024 1024" version="1.1" xmlns="http://www.w3.org/2000/svg" p-id="9466" width="16" height="16" xmlns:xlink="http://www.w3.org/1999/xlink"><path d="M459.985455 681.309091a28.974545 28.974545 0 0 1-20.48-8.494546L256 489.890909a29.090909 29.090909 0 0 1 40.96-41.309091l163.607273 162.909091L721.454545 351.185455a29.090909 29.090909 0 1 1 40.96 41.30909L480.465455 672.814545a28.974545 28.974545 0 0 1-20.48 8.494546z" p-id="9467" fill="#2c2c2c"></path><path d="M875.636364 1000.727273h-733.090909a122.298182 122.298182 0 0 1-122.181819-122.181818v-733.09091A122.298182 122.298182 0 0 1 142.545455 23.272727h733.090909a122.298182 122.298182 0 0 1 122.181818 122.181818v733.09091A122.298182 122.298182 0 0 1 875.636364 1000.727273z m-733.090909-919.272728a64.116364 64.116364 0 0 0-64 64v733.09091a64.116364 64.116364 0 0 0 64 64h733.090909a64.116364 64.116364 0 0 0 64-64v-733.09091a64.116364 64.116364 0 0 0-64-64z" p-id="9468" fill="#2c2c2c"></path></svg>