<?xml version="1.0" standalone="no"?><!DOCTYPE svg PUBLIC "-//W3C//DTD SVG 1.1//EN" "http://www.w3.org/Graphics/SVG/1.1/DTD/svg11.dtd"><svg t="1748018884263" class="icon" viewBox="0 0 1024 1024" version="1.1" xmlns="http://www.w3.org/2000/svg" p-id="1450" width="16" height="16" xmlns:xlink="http://www.w3.org/1999/xlink"><path d="M814.592 1023.488H206.848c-113.664 0-205.824-92.16-205.824-205.824V209.92C0.512 94.208 94.208 0.512 209.92 0.512h603.648c115.712 0 209.92 93.696 209.92 209.92v604.16c0 115.2-93.696 208.896-208.896 208.896zM229.888 77.312C145.408 77.312 76.8 145.92 76.8 230.4v563.712c0 84.48 68.608 153.088 153.088 153.088H793.6c84.48 0 153.088-68.608 153.088-153.088V229.888c0-84.48-68.608-153.088-153.088-153.088H229.888z" p-id="1451"></path></svg>