<?xml version="1.0" standalone="no"?><!DOCTYPE svg PUBLIC "-//W3C//DTD SVG 1.1//EN" "http://www.w3.org/Graphics/SVG/1.1/DTD/svg11.dtd"><svg t="1750347264064" class="icon" viewBox="0 0 1024 1024" version="1.1" xmlns="http://www.w3.org/2000/svg" p-id="20421" width="32" height="32" xmlns:xlink="http://www.w3.org/1999/xlink"><path d="M809.408 336.448L736 409.92 543.616 200.064l64.64-64.768a96 96 0 0 1 135.808 0l0.064 0.064 65.28 65.408a96 96 0 0 1 0 135.68zM305.536 149.12q-4.224-4.672-9.28-8.384-5.12-3.712-10.88-6.4-5.632-2.688-11.776-4.16t-12.416-1.792q-6.272-0.256-12.544 0.704-6.208 0.96-12.16 3.136-5.888 2.112-11.264 5.44-5.376 3.2-10.048 7.488-4.608 4.288-8.32 9.344-3.776 5.12-6.4 10.816-2.688 5.696-4.16 11.84-1.536 6.08-1.792 12.352-0.256 6.336 0.64 12.544 1.024 6.208 3.2 12.16 2.112 5.888 5.376 11.328 3.264 5.376 7.552 9.984l456.448 497.984q4.288 4.672 9.344 8.384 5.12 3.712 10.816 6.4 5.76 2.624 11.84 4.16 6.08 1.472 12.416 1.728 6.272 0.32 12.48-0.64 6.272-0.96 12.16-3.136 5.952-2.176 11.328-5.44 5.376-3.2 9.984-7.488 4.672-4.288 8.384-9.344 3.712-5.12 6.4-10.816 2.688-5.76 4.16-11.84t1.792-12.416q0.256-6.272-0.704-12.48-0.96-6.272-3.136-12.16-2.176-5.952-5.44-11.328-3.2-5.376-7.488-9.984L305.536 149.056z m-56.064 345.6l22.592-22.592 192.192 209.728-13.376 13.44a160 160 0 0 1-113.152 46.848h-39.04c-74.688 0-96-6.08-96-96v-38.4a160 160 0 0 1 46.784-113.024zM128 864q0-3.2 0.64-6.272t1.792-5.952q1.216-2.944 2.944-5.568 1.792-2.56 3.968-4.864 2.24-2.176 4.864-3.968 2.624-1.728 5.568-2.944 2.88-1.216 5.952-1.792 3.136-0.64 6.272-0.64h704q3.2 0 6.272 0.64t5.952 1.792q2.944 1.216 5.568 2.944 2.56 1.792 4.864 3.968 2.176 2.24 3.968 4.864 1.728 2.624 2.944 5.568 1.216 2.88 1.792 5.952 0.64 3.136 0.64 6.272 0 3.2-0.64 6.272t-1.792 5.952q-1.216 2.944-2.944 5.568-1.792 2.56-3.968 4.864-2.24 2.176-4.864 3.968-2.624 1.728-5.568 2.944-2.88 1.216-6.016 1.792-3.072 0.64-6.208 0.64h-704q-3.2 0-6.272-0.64t-5.952-1.792q-2.944-1.216-5.568-2.944-2.56-1.792-4.864-3.968-2.176-2.24-3.968-4.864-1.728-2.624-2.944-5.568-1.216-2.88-1.792-5.952Q128 867.136 128 864z" p-id="20422" fill="#ffffff"></path></svg>