<?xml version="1.0" standalone="no"?><!DOCTYPE svg PUBLIC "-//W3C//DTD SVG 1.1//EN" "http://www.w3.org/Graphics/SVG/1.1/DTD/svg11.dtd"><svg t="1749113261086" class="icon" viewBox="0 0 1024 1024" version="1.1" xmlns="http://www.w3.org/2000/svg" p-id="6767" width="32" height="32" xmlns:xlink="http://www.w3.org/1999/xlink"><path d="M512 42.667c256.619 0 465.13 205.952 469.27 461.568l0.063 7.765a42.667 42.667 0 0 1-85.226 3.2L896 512c0-212.075-171.925-384-384-384S128 299.925 128 512c0 68.907 18.09 134.976 51.99 193.11l18.026 30.911-33.728 123.691 123.69-33.728 30.934 18.027a381.461 381.461 0 0 0 182.763 51.84L512 896a42.667 42.667 0 0 1 3.2 85.227l-3.2 0.106a467.157 467.157 0 0 1-236.096-63.616l-161.195 43.99a42.667 42.667 0 0 1-52.394-52.395l43.946-161.195A467.157 467.157 0 0 1 42.667 512C42.667 252.8 252.8 42.667 512 42.667z m213.333 426.666A42.667 42.667 0 0 1 768 512v170.667h170.667a42.667 42.667 0 1 1 0 85.333H767.979L768 938.667a42.667 42.667 0 1 1-85.333 0L682.645 768H512a42.667 42.667 0 1 1 0-85.333h170.667V512a42.667 42.667 0 0 1 42.666-42.667z" p-id="6768" fill="#ffffff"></path></svg>