<?xml version="1.0" standalone="no"?><!DOCTYPE svg PUBLIC "-//W3C//DTD SVG 1.1//EN" "http://www.w3.org/Graphics/SVG/1.1/DTD/svg11.dtd"><svg t="1749559048587" class="icon" viewBox="0 0 1262 1024" version="1.1" xmlns="http://www.w3.org/2000/svg" p-id="5777" width="39.4375" height="32" xmlns:xlink="http://www.w3.org/1999/xlink"><path d="M106.327988 732.880593A30.583467 30.583467 0 0 1 105.963899 728.177778V212.385185a121.362963 121.362963 0 0 1 121.362963-121.362963h231.0144a91.022222 91.022222 0 0 1 85.227141 59.073422l15.98957 42.5984a30.340741 30.340741 0 0 0 28.398934 19.691141H803.800936a121.362963 121.362963 0 0 1 121.362963 121.362963v38.138311a121.423644 121.423644 0 0 1 74.274134 145.119763l-57.192297 212.385185A121.362963 121.362963 0 0 1 825.069796 819.2H197.228847a91.022222 91.022222 0 0 1-90.900859-86.319407zM864.482418 364.088889v-30.340741a60.681481 60.681481 0 0 0-60.681482-60.681481h-215.844029a91.022222 91.022222 0 0 1-85.227141-59.073423L486.740196 171.425185a30.340741 30.340741 0 0 0-28.398934-19.721481H227.326862a60.681481 60.681481 0 0 0-60.681481 60.681481v316.423585l26.487466-81.070459A121.362963 121.362963 0 0 1 308.488344 364.088889H864.482418zM308.488344 424.77037a60.681481 60.681481 0 0 0-57.647408 41.839882l-82.435792 252.131555A30.340741 30.340741 0 0 0 197.228847 758.518519h627.840949a60.681481 60.681481 0 0 0 58.58797-44.904297l57.192296-212.385185A60.681481 60.681481 0 0 0 882.231751 424.77037H308.488344z" fill="#ffffff" p-id="5778"></path></svg>