<?xml version="1.0" standalone="no"?><!DOCTYPE svg PUBLIC "-//W3C//DTD SVG 1.1//EN" "http://www.w3.org/Graphics/SVG/1.1/DTD/svg11.dtd"><svg t="1750126792218" class="icon" viewBox="0 0 1024 1024" version="1.1" xmlns="http://www.w3.org/2000/svg" p-id="9832" width="32" height="32" xmlns:xlink="http://www.w3.org/1999/xlink"><path d="M512 928A416 416 0 1 1 928 512 416 416 0 0 1 512 928z m0-768A352 352 0 1 0 864 512 352 352 0 0 0 512 160z m96 512h-192a64 64 0 0 1-64-64v-192a64 64 0 0 1 64-64h192a64 64 0 0 1 64 64v192a64 64 0 0 1-64 64z" fill="#ce2b16" p-id="9833"></path></svg>