<?xml version="1.0" standalone="no"?><!DOCTYPE svg PUBLIC "-//W3C//DTD SVG 1.1//EN" "http://www.w3.org/Graphics/SVG/1.1/DTD/svg11.dtd"><svg t="1748935550840" class="icon" viewBox="0 0 1024 1024" version="1.1" xmlns="http://www.w3.org/2000/svg" p-id="10657" width="32" height="32" xmlns:xlink="http://www.w3.org/1999/xlink"><path d="M480.018769 132.402296L831.81231 339.001049v410.639006l-351.793541 205.319503L128.225228 749.640055V339.001049l351.793541-206.598753M480.018769 63.962462a34.539729 34.539729 0 0 0-17.269865 4.477372L82.172255 291.668827A37.098228 37.098228 0 0 0 64.262766 319.81231v447.737234a32.620856 32.620856 0 0 0 17.909489 30.062358l383.774772 221.949743a35.818979 35.818979 0 0 0 34.53973 0l383.774772-221.949743A35.818979 35.818979 0 0 0 895.774772 767.549544V319.81231a35.179354 35.179354 0 0 0-17.909489-30.062357l-383.774772-223.228992A34.539729 34.539729 0 0 0 480.018769 63.962462z" fill="#ffffff" p-id="10658"></path><path d="M448.037538 543.680927h63.962462v255.849848a31.981231 31.981231 0 0 1-31.981231 31.981231 31.981231 31.981231 0 0 1-31.981231-31.981231v-255.849848z" fill="#ffffff" p-id="10659"></path><path d="M696.851515 397.206889a33.900105 33.900105 0 0 0-46.052972-5.116997l-170.779774 127.924924-170.779774-127.924924a33.900105 33.900105 0 0 0-46.052972 5.116997 31.341606 31.341606 0 0 0 5.116997 44.773724L448.037538 575.662158h63.962462l178.455269-133.681545a31.341606 31.341606 0 0 0 6.396246-44.773724z" fill="#ffffff" p-id="10660"></path></svg>